<svg width="366" height="82" viewBox="0 0 366 82" fill="none" xmlns="http://www.w3.org/2000/svg">
<path d="M112.71 53.7349C110.964 53.7349 109.392 53.4356 107.995 52.8369C106.599 52.2133 105.501 51.3403 104.703 50.2178C103.905 49.0953 103.506 47.7858 103.506 46.2891H108.07C108.17 47.4116 108.607 48.3345 109.38 49.0579C110.178 49.7813 111.288 50.143 112.71 50.143C114.182 50.143 115.329 49.7938 116.152 49.0953C116.975 48.3719 117.387 47.449 117.387 46.3265C117.387 45.4535 117.125 44.7426 116.601 44.1938C116.102 43.645 115.466 43.221 114.693 42.9217C113.945 42.6223 112.897 42.2981 111.55 41.9488C109.854 41.4998 108.469 41.0508 107.397 40.6019C106.349 40.1279 105.451 39.4045 104.703 38.4317C103.955 37.4589 103.58 36.1618 103.58 34.5404C103.58 33.0438 103.955 31.7342 104.703 30.6117C105.451 29.4893 106.499 28.6287 107.846 28.03C109.193 27.4314 110.752 27.132 112.523 27.132C115.042 27.132 117.1 27.7681 118.696 29.0403C120.318 30.2875 121.216 32.0086 121.39 34.2037H116.676C116.601 33.2558 116.152 32.4451 115.329 31.7716C114.506 31.0981 113.421 30.7614 112.074 30.7614C110.852 30.7614 109.854 31.0732 109.081 31.6968C108.307 32.3204 107.921 33.2184 107.921 34.3908C107.921 35.189 108.158 35.85 108.632 36.3738C109.13 36.8727 109.754 37.2718 110.502 37.5711C111.251 37.8705 112.273 38.1947 113.57 38.544C115.292 39.0179 116.688 39.4918 117.761 39.9658C118.859 40.4397 119.782 41.1756 120.53 42.1733C121.303 43.1461 121.69 44.4557 121.69 46.102C121.69 47.4241 121.328 48.6713 120.605 49.8436C119.906 51.016 118.871 51.9639 117.499 52.6873C116.152 53.3857 114.556 53.7349 112.71 53.7349ZM131.699 36.3364V47.7483C131.699 48.5216 131.874 49.0828 132.223 49.4321C132.597 49.7563 133.221 49.9185 134.094 49.9185H136.713V53.473H133.346C131.425 53.473 129.953 53.024 128.93 52.126C127.908 51.228 127.396 49.7688 127.396 47.7483V36.3364H124.964V32.8567H127.396V27.7307H131.699V32.8567H136.713V36.3364H131.699ZM149.587 53.8098C147.641 53.8098 145.883 53.3732 144.311 52.5002C142.74 51.6022 141.505 50.355 140.607 48.7586C139.709 47.1372 139.26 45.2664 139.26 43.1461C139.26 41.0508 139.721 39.1925 140.644 37.5711C141.567 35.9498 142.827 34.7026 144.423 33.8295C146.02 32.9565 147.803 32.52 149.774 32.52C151.744 32.52 153.528 32.9565 155.124 33.8295C156.721 34.7026 157.98 35.9498 158.903 37.5711C159.826 39.1925 160.288 41.0508 160.288 43.1461C160.288 45.2415 159.814 47.0998 158.866 48.7212C157.918 50.3425 156.621 51.6022 154.975 52.5002C153.353 53.3732 151.557 53.8098 149.587 53.8098ZM149.587 50.1056C150.684 50.1056 151.707 49.8436 152.655 49.3198C153.628 48.796 154.413 48.0102 155.012 46.9626C155.611 45.9149 155.91 44.6428 155.91 43.1461C155.91 41.6495 155.623 40.3898 155.05 39.3671C154.476 38.3195 153.715 37.5337 152.767 37.0099C151.819 36.4861 150.797 36.2242 149.699 36.2242C148.601 36.2242 147.579 36.4861 146.631 37.0099C145.708 37.5337 144.972 38.3195 144.423 39.3671C143.875 40.3898 143.6 41.6495 143.6 43.1461C143.6 45.3662 144.161 47.0873 145.284 48.3096C146.431 49.5069 147.866 50.1056 149.587 50.1056ZM168.77 35.85C169.393 34.8023 170.217 33.9917 171.239 33.418C172.287 32.8193 173.522 32.52 174.943 32.52V36.9351H173.858C172.187 36.9351 170.915 37.3591 170.042 38.2072C169.194 39.0553 168.77 40.527 168.77 42.6223V53.473H164.504V32.8567H168.77V35.85ZM197.759 42.6597C197.759 43.433 197.71 44.1314 197.61 44.755H181.858C181.982 46.4014 182.593 47.7234 183.691 48.7212C184.789 49.7189 186.135 50.2178 187.732 50.2178C190.027 50.2178 191.648 49.2575 192.596 47.3368H197.198C196.575 49.2325 195.44 50.7915 193.793 52.0138C192.172 53.2111 190.151 53.8098 187.732 53.8098C185.761 53.8098 183.99 53.3732 182.419 52.5002C180.872 51.6022 179.65 50.355 178.752 48.7586C177.879 47.1372 177.442 45.2664 177.442 43.1461C177.442 41.0259 177.867 39.1676 178.715 37.5711C179.588 35.9498 180.797 34.7026 182.344 33.8295C183.915 32.9565 185.711 32.52 187.732 32.52C189.678 32.52 191.411 32.944 192.933 33.7921C194.454 34.6402 195.639 35.8375 196.487 37.3841C197.335 38.9057 197.759 40.6642 197.759 42.6597ZM193.307 41.3128C193.282 39.7413 192.721 38.4816 191.623 37.5337C190.526 36.5859 189.166 36.1119 187.545 36.1119C186.073 36.1119 184.813 36.5859 183.766 37.5337C182.718 38.4567 182.095 39.7163 181.895 41.3128H193.307ZM239.065 27.4688V53.473H234.8V35.6629L226.867 53.473H223.912L215.942 35.6629V53.473H211.677V27.4688H216.279L225.408 47.8606L234.5 27.4688H239.065ZM263.23 32.8567L250.583 63.1638H246.168L250.359 53.1363L242.239 32.8567H246.991L252.791 48.5715L258.815 32.8567H263.23ZM284.662 27.4688C287.43 27.4688 289.85 28.0051 291.92 29.0777C294.016 30.1253 295.625 31.6469 296.747 33.6424C297.895 35.613 298.468 37.9204 298.468 40.5644C298.468 43.2085 297.895 45.5034 296.747 47.449C295.625 49.3946 294.016 50.8913 291.92 51.9389C289.85 52.9617 287.43 53.473 284.662 53.473H276.168V27.4688H284.662ZM284.662 49.9933C287.705 49.9933 290.037 49.1701 291.658 47.5238C293.28 45.8775 294.091 43.5577 294.091 40.5644C294.091 37.5462 293.28 35.189 291.658 33.4928C290.037 31.7966 287.705 30.9485 284.662 30.9485H280.434V49.9933H284.662ZM301.274 43.0713C301.274 41.001 301.698 39.1676 302.546 37.5711C303.419 35.9747 304.591 34.74 306.063 33.8669C307.56 32.969 309.206 32.52 311.002 32.52C312.623 32.52 314.033 32.8442 315.23 33.4928C316.452 34.1164 317.425 34.9021 318.149 35.85V32.8567H322.451V53.473H318.149V50.4049C317.425 51.3777 316.44 52.1884 315.193 52.8369C313.945 53.4855 312.524 53.8098 310.927 53.8098C309.156 53.8098 307.535 53.3608 306.063 52.4628C304.591 51.5398 303.419 50.2677 302.546 48.6463C301.698 47 301.274 45.1417 301.274 43.0713ZM318.149 43.1461C318.149 41.7243 317.849 40.4896 317.251 39.442C316.677 38.3943 315.916 37.5961 314.968 37.0473C314.02 36.4985 312.998 36.2242 311.9 36.2242C310.803 36.2242 309.78 36.4985 308.832 37.0473C307.884 37.5711 307.111 38.3569 306.512 39.4045C305.938 40.4272 305.652 41.6495 305.652 43.0713C305.652 44.4931 305.938 45.7403 306.512 46.8129C307.111 47.8855 307.884 48.7087 308.832 49.2824C309.805 49.8312 310.827 50.1056 311.9 50.1056C312.998 50.1056 314.02 49.8312 314.968 49.2824C315.916 48.7336 316.677 47.9354 317.251 46.8878C317.849 45.8152 318.149 44.568 318.149 43.1461ZM333.03 36.3364V47.7483C333.03 48.5216 333.205 49.0828 333.554 49.4321C333.928 49.7563 334.552 49.9185 335.425 49.9185H338.044V53.473H334.677C332.756 53.473 331.284 53.024 330.261 52.126C329.239 51.228 328.727 49.7688 328.727 47.7483V36.3364H326.295V32.8567H328.727V27.7307H333.03V32.8567H338.044V36.3364H333.03ZM340.554 43.0713C340.554 41.001 340.978 39.1676 341.826 37.5711C342.699 35.9747 343.871 34.74 345.343 33.8669C346.839 32.969 348.486 32.52 350.282 32.52C351.903 32.52 353.312 32.8442 354.51 33.4928C355.732 34.1164 356.705 34.9021 357.428 35.85V32.8567H361.731V53.473H357.428V50.4049C356.705 51.3777 355.72 52.1884 354.472 52.8369C353.225 53.4855 351.803 53.8098 350.207 53.8098C348.436 53.8098 346.814 53.3608 345.343 52.4628C343.871 51.5398 342.699 50.2677 341.826 48.6463C340.978 47 340.554 45.1417 340.554 43.0713ZM357.428 43.1461C357.428 41.7243 357.129 40.4896 356.53 39.442C355.956 38.3943 355.196 37.5961 354.248 37.0473C353.3 36.4985 352.277 36.2242 351.18 36.2242C350.082 36.2242 349.059 36.4985 348.112 37.0473C347.164 37.5711 346.39 38.3569 345.792 39.4045C345.218 40.4272 344.931 41.6495 344.931 43.0713C344.931 44.4931 345.218 45.7403 345.792 46.8129C346.39 47.8855 347.164 48.7087 348.112 49.2824C349.084 49.8312 350.107 50.1056 351.18 50.1056C352.277 50.1056 353.3 49.8312 354.248 49.2824C355.196 48.7336 355.956 47.9354 356.53 46.8878C357.129 45.8152 357.428 44.568 357.428 43.1461Z" fill="white"/>
<rect opacity="0.2" width="74.8323" height="74.8323" rx="37.4161" fill="white"/>
<rect x="32.7391" y="31.1801" width="49.8882" height="49.8882" rx="24.9441" fill="white"/>
</svg>
