<svg width="234" height="52" viewBox="0 0 234 52" fill="none" xmlns="http://www.w3.org/2000/svg">
<path d="M72.296 34.168C71.176 34.168 70.168 33.976 69.272 33.592C68.376 33.192 67.672 32.632 67.16 31.912C66.648 31.192 66.392 30.352 66.392 29.392H69.32C69.384 30.112 69.664 30.704 70.16 31.168C70.672 31.632 71.384 31.864 72.296 31.864C73.24 31.864 73.976 31.64 74.504 31.192C75.032 30.728 75.296 30.136 75.296 29.416C75.296 28.856 75.128 28.4 74.792 28.048C74.472 27.696 74.064 27.424 73.568 27.232C73.088 27.04 72.416 26.832 71.552 26.608C70.464 26.32 69.576 26.032 68.888 25.744C68.216 25.44 67.64 24.976 67.16 24.352C66.68 23.728 66.44 22.896 66.44 21.856C66.44 20.896 66.68 20.056 67.16 19.336C67.64 18.616 68.312 18.064 69.176 17.68C70.04 17.296 71.04 17.104 72.176 17.104C73.792 17.104 75.112 17.512 76.136 18.328C77.176 19.128 77.752 20.232 77.864 21.64H74.84C74.792 21.032 74.504 20.512 73.976 20.08C73.448 19.648 72.752 19.432 71.888 19.432C71.104 19.432 70.464 19.632 69.968 20.032C69.472 20.432 69.224 21.008 69.224 21.76C69.224 22.272 69.376 22.696 69.68 23.032C70 23.352 70.4 23.608 70.88 23.8C71.36 23.992 72.016 24.2 72.848 24.424C73.952 24.728 74.848 25.032 75.536 25.336C76.24 25.64 76.832 26.112 77.312 26.752C77.808 27.376 78.056 28.216 78.056 29.272C78.056 30.12 77.824 30.92 77.36 31.672C76.912 32.424 76.248 33.032 75.368 33.496C74.504 33.944 73.48 34.168 72.296 34.168ZM84.4764 23.008V30.328C84.4764 30.824 84.5884 31.184 84.8124 31.408C85.0524 31.616 85.4524 31.72 86.0124 31.72H87.6924V34H85.5324C84.3004 34 83.3564 33.712 82.7004 33.136C82.0444 32.56 81.7164 31.624 81.7164 30.328V23.008H80.1564V20.776H81.7164V17.488H84.4764V20.776H87.6924V23.008H84.4764ZM95.9501 34.216C94.7021 34.216 93.5741 33.936 92.5661 33.376C91.5581 32.8 90.7661 32 90.1901 30.976C89.6141 29.936 89.3261 28.736 89.3261 27.376C89.3261 26.032 89.6221 24.84 90.2141 23.8C90.8061 22.76 91.6141 21.96 92.6381 21.4C93.6621 20.84 94.8061 20.56 96.0701 20.56C97.3341 20.56 98.4781 20.84 99.5021 21.4C100.526 21.96 101.334 22.76 101.926 23.8C102.518 24.84 102.814 26.032 102.814 27.376C102.814 28.72 102.51 29.912 101.902 30.952C101.294 31.992 100.462 32.8 99.4061 33.376C98.3661 33.936 97.2141 34.216 95.9501 34.216ZM95.9501 31.84C96.6541 31.84 97.3101 31.672 97.9181 31.336C98.5421 31 99.0461 30.496 99.4301 29.824C99.8141 29.152 100.006 28.336 100.006 27.376C100.006 26.416 99.8221 25.608 99.4541 24.952C99.0861 24.28 98.5981 23.776 97.9901 23.44C97.3821 23.104 96.7261 22.936 96.0221 22.936C95.3181 22.936 94.6621 23.104 94.0541 23.44C93.4621 23.776 92.9901 24.28 92.6381 24.952C92.2861 25.608 92.1101 26.416 92.1101 27.376C92.1101 28.8 92.4701 29.904 93.1901 30.688C93.9261 31.456 94.8461 31.84 95.9501 31.84ZM108.255 22.696C108.655 22.024 109.183 21.504 109.839 21.136C110.511 20.752 111.303 20.56 112.215 20.56V23.392H111.519C110.447 23.392 109.631 23.664 109.071 24.208C108.527 24.752 108.255 25.696 108.255 27.04V34H105.519V20.776H108.255V22.696ZM126.85 27.064C126.85 27.56 126.818 28.008 126.754 28.408H116.65C116.73 29.464 117.122 30.312 117.826 30.952C118.53 31.592 119.394 31.912 120.418 31.912C121.89 31.912 122.93 31.296 123.538 30.064H126.49C126.09 31.28 125.362 32.28 124.306 33.064C123.266 33.832 121.97 34.216 120.418 34.216C119.154 34.216 118.018 33.936 117.01 33.376C116.018 32.8 115.234 32 114.658 30.976C114.098 29.936 113.818 28.736 113.818 27.376C113.818 26.016 114.09 24.824 114.634 23.8C115.194 22.76 115.97 21.96 116.962 21.4C117.97 20.84 119.122 20.56 120.418 20.56C121.666 20.56 122.778 20.832 123.754 21.376C124.73 21.92 125.49 22.688 126.034 23.68C126.578 24.656 126.85 25.784 126.85 27.064ZM123.994 26.2C123.978 25.192 123.618 24.384 122.914 23.776C122.21 23.168 121.338 22.864 120.298 22.864C119.354 22.864 118.546 23.168 117.874 23.776C117.202 24.368 116.802 25.176 116.674 26.2H123.994ZM153.345 17.32V34H150.609V22.576L145.521 34H143.625L138.513 22.576V34H135.777V17.32H138.729L144.585 30.4L150.417 17.32H153.345ZM168.845 20.776L160.733 40.216H157.901L160.589 33.784L155.381 20.776H158.429L162.149 30.856L166.013 20.776H168.845ZM182.592 17.32C184.368 17.32 185.92 17.664 187.248 18.352C188.592 19.024 189.624 20 190.344 21.28C191.08 22.544 191.448 24.024 191.448 25.72C191.448 27.416 191.08 28.888 190.344 30.136C189.624 31.384 188.592 32.344 187.248 33.016C185.92 33.672 184.368 34 182.592 34H177.144V17.32H182.592ZM182.592 31.768C184.544 31.768 186.04 31.24 187.08 30.184C188.12 29.128 188.64 27.64 188.64 25.72C188.64 23.784 188.12 22.272 187.08 21.184C186.04 20.096 184.544 19.552 182.592 19.552H179.88V31.768H182.592ZM193.247 27.328C193.247 26 193.519 24.824 194.063 23.8C194.623 22.776 195.375 21.984 196.319 21.424C197.279 20.848 198.335 20.56 199.487 20.56C200.527 20.56 201.431 20.768 202.199 21.184C202.983 21.584 203.607 22.088 204.071 22.696V20.776H206.831V34H204.071V32.032C203.607 32.656 202.975 33.176 202.175 33.592C201.375 34.008 200.463 34.216 199.439 34.216C198.303 34.216 197.263 33.928 196.319 33.352C195.375 32.76 194.623 31.944 194.063 30.904C193.519 29.848 193.247 28.656 193.247 27.328ZM204.071 27.376C204.071 26.464 203.879 25.672 203.495 25C203.127 24.328 202.639 23.816 202.031 23.464C201.423 23.112 200.767 22.936 200.063 22.936C199.359 22.936 198.703 23.112 198.095 23.464C197.487 23.8 196.991 24.304 196.607 24.976C196.239 25.632 196.055 26.416 196.055 27.328C196.055 28.24 196.239 29.04 196.607 29.728C196.991 30.416 197.487 30.944 198.095 31.312C198.719 31.664 199.375 31.84 200.063 31.84C200.767 31.84 201.423 31.664 202.031 31.312C202.639 30.96 203.127 30.448 203.495 29.776C203.879 29.088 204.071 28.288 204.071 27.376ZM213.617 23.008V30.328C213.617 30.824 213.729 31.184 213.953 31.408C214.193 31.616 214.593 31.72 215.153 31.72H216.833V34H214.673C213.441 34 212.497 33.712 211.841 33.136C211.185 32.56 210.857 31.624 210.857 30.328V23.008H209.297V20.776H210.857V17.488H213.617V20.776H216.833V23.008H213.617ZM218.443 27.328C218.443 26 218.715 24.824 219.259 23.8C219.819 22.776 220.571 21.984 221.515 21.424C222.475 20.848 223.531 20.56 224.683 20.56C225.723 20.56 226.627 20.768 227.395 21.184C228.179 21.584 228.803 22.088 229.267 22.696V20.776H232.027V34H229.267V32.032C228.803 32.656 228.171 33.176 227.371 33.592C226.571 34.008 225.659 34.216 224.635 34.216C223.499 34.216 222.459 33.928 221.515 33.352C220.571 32.76 219.819 31.944 219.259 30.904C218.715 29.848 218.443 28.656 218.443 27.328ZM229.267 27.376C229.267 26.464 229.075 25.672 228.691 25C228.323 24.328 227.835 23.816 227.227 23.464C226.619 23.112 225.963 22.936 225.259 22.936C224.555 22.936 223.899 23.112 223.291 23.464C222.683 23.8 222.187 24.304 221.803 24.976C221.435 25.632 221.251 26.416 221.251 27.328C221.251 28.24 221.435 29.04 221.803 29.728C222.187 30.416 222.683 30.944 223.291 31.312C223.915 31.664 224.571 31.84 225.259 31.84C225.963 31.84 226.619 31.664 227.227 31.312C227.835 30.96 228.323 30.448 228.691 29.776C229.075 29.088 229.267 28.288 229.267 27.376Z" fill="#FA7275"/>
<rect opacity="0.2" width="48" height="48" rx="24" fill="#FA7275"/>
<rect x="21" y="20" width="32" height="32" rx="16" fill="#FA7275"/>
</svg>
