<svg width="236" height="243" viewBox="0 0 236 243" fill="none" xmlns="http://www.w3.org/2000/svg">
<g opacity="0.4" filter="url(#filter0_f_2_2)">
<circle cx="47.2363" cy="48" r="33" fill="#EEA8FD"/>
</g>
<circle cx="47.2363" cy="43" r="33" fill="#EEA8FD"/>
<path d="M61.4146 35.5925C60.4759 32.4098 57.8212 29.7551 54.6385 28.8164C52.2184 28.1124 50.5464 28.1711 49.3877 29.0364C47.9943 30.0778 47.833 31.9551 47.833 33.2898V36.9419C47.833 40.5499 49.4757 42.3833 52.7024 42.3833H56.9118C58.2319 42.3833 60.1239 42.222 61.1652 40.8286C62.0599 39.6846 62.1333 38.0126 61.4146 35.5925Z" fill="white"/>
<path d="M57.3678 44.9944C56.9865 44.5544 56.4292 44.305 55.8572 44.305H50.6064C48.025 44.305 45.9277 42.2077 45.9277 39.6263V34.3755C45.9277 33.8035 45.6783 33.2462 45.2383 32.8648C44.813 32.4835 44.2263 32.3075 43.6689 32.3808C40.2222 32.8208 37.0542 34.7129 34.9861 37.5582C32.9034 40.4183 32.1408 43.909 32.8008 47.3997C33.7541 52.4452 37.7875 56.4786 42.8476 57.4319C43.6543 57.5932 44.461 57.6666 45.2676 57.6666C47.9224 57.6666 50.4891 56.8452 52.6744 55.2465C55.5198 53.1785 57.4118 50.0105 57.8519 46.5637C57.9252 45.9917 57.7492 45.4197 57.3678 44.9944Z" fill="white"/>
<path d="M10.1325 131.681V113.104C9.32734 104.471 11.2976 87.3449 41.836 85.2126C69.8842 83.2541 75.8534 79.3007 90.5529 53.5299C102.653 32.3168 121.126 31.915 138.043 31.5471C140.259 31.4989 142.449 31.4513 144.594 31.3575C155.962 30.8606 191.067 30.9675 216.485 31.166C227.309 31.2505 236 40.0336 236 50.8243V223.286C236 234.174 227.146 243 216.225 243H29.775C18.8536 243 10 234.174 10 223.286V131.681H10.1325Z" fill="white"/>
<defs>
<filter id="filter0_f_2_2" x="0.111328" y="0.875" width="94.25" height="94.25" filterUnits="userSpaceOnUse" color-interpolation-filters="sRGB">
<feFlood flood-opacity="0" result="BackgroundImageFix"/>
<feBlend mode="normal" in="SourceGraphic" in2="BackgroundImageFix" result="shape"/>
<feGaussianBlur stdDeviation="7.0625" result="effect1_foregroundBlur_2_2"/>
</filter>
</defs>
</svg>
