<svg width="236" height="243" viewBox="0 0 236 243" fill="none" xmlns="http://www.w3.org/2000/svg">
<g opacity="0.4" filter="url(#filter0_f_2_2)">
<circle cx="47.2363" cy="48" r="33" fill="#3DD9B3"/>
</g>
<circle cx="47.2363" cy="43" r="33" fill="#3DD9B3"/>
<path d="M59.4365 35.2266C58.8898 34.9333 57.7432 34.6266 56.1832 35.7199L54.2232 37.1066C54.0765 32.9599 52.2765 31.3333 47.9032 31.3333H39.9032C35.3432 31.3333 33.5698 33.1066 33.5698 37.6666V48.3333C33.5698 51.3999 35.2365 54.6666 39.9032 54.6666H47.9032C52.2765 54.6666 54.0765 53.0399 54.2232 48.8933L56.1832 50.2799C57.0098 50.8666 57.7298 51.0533 58.3032 51.0533C58.7965 51.0533 59.1832 50.9066 59.4365 50.7733C59.9832 50.4932 60.9032 49.7333 60.9032 47.8266V38.1733C60.9032 36.2666 59.9832 35.5066 59.4365 35.2266ZM45.9032 42.1733C44.5298 42.1733 43.3965 41.0533 43.3965 39.6666C43.3965 38.2799 44.5298 37.1599 45.9032 37.1599C47.2765 37.1599 48.4098 38.2799 48.4098 39.6666C48.4098 41.0533 47.2765 42.1733 45.9032 42.1733Z" fill="white"/>
<path d="M10.1325 131.681V113.104C9.32734 104.471 11.2976 87.3449 41.836 85.2126C69.8842 83.2541 75.8534 79.3007 90.5529 53.5299C102.653 32.3168 121.126 31.915 138.043 31.5471C140.259 31.4989 142.449 31.4513 144.594 31.3575C155.962 30.8606 191.067 30.9675 216.485 31.166C227.309 31.2505 236 40.0336 236 50.8243V223.286C236 234.174 227.146 243 216.225 243H29.775C18.8536 243 10 234.174 10 223.286V131.681H10.1325Z" fill="white"/>
<defs>
<filter id="filter0_f_2_2" x="0.111328" y="0.875" width="94.25" height="94.25" filterUnits="userSpaceOnUse" color-interpolation-filters="sRGB">
<feFlood flood-opacity="0" result="BackgroundImageFix"/>
<feBlend mode="normal" in="SourceGraphic" in2="BackgroundImageFix" result="shape"/>
<feGaussianBlur stdDeviation="7.0625" result="effect1_foregroundBlur_2_2"/>
</filter>
</defs>
</svg>
