<?xml version="1.0" encoding="UTF-8"?>
<svg version="1.1" xmlns="http://www.w3.org/2000/svg" width="512" height="512">
<path d="M0 0 C19.47189927 15.54362366 31.60404226 37.6230749 34.59765625 62.39453125 C36.81540197 86.08309947 30.59003877 111.02303006 15.28515625 129.5234375 C14.86105469 130.01070312 14.43695313 130.49796875 14 131 C18.96194855 136.99500997 24.3476624 142.46427037 29.875 147.9375 C30.75414062 148.81212891 31.63328125 149.68675781 32.5390625 150.58789062 C34.6904346 152.72757048 36.84411792 154.86486597 39 157 C42.54880434 155.63794345 45.24187956 154.20142408 48.25 151.875 C70.45754413 136.02192453 98.44177175 130.95835334 125.125 135.125 C142.40611204 138.15933084 159.41076569 145.9067475 173 157 C176.90851199 155.41568547 179.52367356 152.73364905 182.421875 149.7734375 C183.17914886 149.01191879 183.17914886 149.01191879 183.95172119 148.23501587 C185.55592096 146.61966158 187.15300856 144.99747791 188.75 143.375 C189.83938107 142.27558302 190.9292199 141.17661941 192.01953125 140.078125 C194.68501885 137.3906398 197.34415143 134.69700979 200 132 C199.60240479 131.40541992 199.20480957 130.81083984 198.79516602 130.19824219 C183.35175845 107.07427252 175.73897135 82.88240975 180.58154297 55.09082031 C183.60215568 39.99833067 189.8603366 25.65209218 200 14 C200.65484375 13.20207031 201.3096875 12.40414063 201.984375 11.58203125 C216.39377235 -5.37793461 236.04724721 -15.739239 258 -19 C287.11342676 -20.78315742 310.68763706 -15.47237393 333.3671875 3.62109375 C349.81547515 18.4831222 361.62397856 39.78989755 363.22314453 62.11523438 C364.57400408 91.33445353 357.89548957 114.93767494 338 137 C320.76404404 154.76179868 298.02756125 164.20112494 273.39453125 164.99609375 C251.62606828 165.26173952 229.55019865 158.40480253 213 144 C207.00499003 148.96194855 201.53572963 154.3476624 196.0625 159.875 C195.18787109 160.75414062 194.31324219 161.63328125 193.41210938 162.5390625 C191.27242952 164.6904346 189.13513403 166.84411792 187 169 C188.36205655 172.54880434 189.79857592 175.24187956 192.125 178.25 C207.63464572 199.9764557 212.97255555 227.44367846 209.22851562 253.64599609 C206.23971123 271.43433607 198.40677655 289.02669873 187 303 C188.58431453 306.90851199 191.26635095 309.52367356 194.2265625 312.421875 C194.73424164 312.92672424 195.24192078 313.43157349 195.76498413 313.95172119 C197.38033842 315.55592096 199.00252209 317.15300856 200.625 318.75 C201.72441698 319.83938107 202.82338059 320.9292199 203.921875 322.01953125 C206.6093602 324.68501885 209.30299021 327.34415143 212 330 C212.58442871 329.60820557 213.16885742 329.21641113 213.77099609 328.81274414 C224.86236152 321.39458199 235.18742609 315.69593478 248 312 C248.78890625 311.76410156 249.5778125 311.52820313 250.390625 311.28515625 C274.22336053 305.05407845 300.10857764 310.83736515 321 323 C324.19500122 325.13990779 327.10116048 327.47742667 330 330 C330.79792969 330.65484375 331.59585937 331.3096875 332.41796875 331.984375 C349.37793461 346.39377235 359.739239 366.04724721 363 388 C364.69299946 415.64142713 360.28404085 440.38541145 341.8125 461.91796875 C326.79759788 478.64900782 304.88913514 491.82235384 282.03125 493.17578125 C252.66087178 494.38800205 229.23018009 488.04685883 207 468 C189.23820132 450.76404404 179.79887506 428.02756125 179.00390625 403.39453125 C178.73826048 381.62606828 185.59519747 359.55019865 200 343 C195.03805145 337.00499003 189.6523376 331.53572963 184.125 326.0625 C182.80628906 324.75055664 182.80628906 324.75055664 181.4609375 323.41210938 C179.3095654 321.27242952 177.15588208 319.13513403 175 317 C171.45119566 318.36205655 168.75812044 319.79857592 165.75 322.125 C143.62033685 337.8989712 115.45914236 343.03020705 88.875 338.875 C71.59379442 335.84032463 54.58941512 328.0934001 41 317 C37.09148801 318.58431453 34.47632644 321.26635095 31.578125 324.2265625 C31.07327576 324.73424164 30.56842651 325.24192078 30.04827881 325.76498413 C28.44407904 327.38033842 26.84699144 329.00252209 25.25 330.625 C24.16061893 331.72441698 23.0707801 332.82338059 21.98046875 333.921875 C19.31498115 336.6093602 16.65584857 339.30299021 14 342 C14.39179443 342.58442871 14.78358887 343.16885742 15.18725586 343.77099609 C22.60624355 354.86359584 28.30001153 365.18788307 32 378 C32.23589844 378.77730469 32.47179687 379.55460937 32.71484375 380.35546875 C38.7410278 403.09661585 33.72426328 429.17531034 22.07910156 449.26464844 C8.43197308 471.21120709 -12.93313724 486.08227816 -38 492 C-62.77203949 496.65769842 -87.86208364 492.31080629 -109.03808594 478.68896484 C-121.08775424 470.33252906 -130.73302116 459.74056444 -138 447 C-138.67482422 445.83597656 -138.67482422 445.83597656 -139.36328125 444.6484375 C-150.49839453 424.03296461 -152.90857268 397.11832726 -146.25390625 374.71484375 C-137.70655117 349.39230581 -121.64775035 330.80702933 -98.3125 318.1875 C-75.55732309 307.40873199 -49.54709883 306.18695506 -25.82421875 314.51953125 C-15.94541168 318.22942142 -6.99927011 323.03767232 1 330 C6.99500997 325.03805145 12.46427037 319.6523376 17.9375 314.125 C19.24944336 312.80628906 19.24944336 312.80628906 20.58789062 311.4609375 C22.72757048 309.3095654 24.86486597 307.15588208 27 305 C25.63794345 301.45119566 24.20142408 298.75812044 21.875 295.75 C6.36535428 274.0235443 1.02744445 246.55632154 4.77148438 220.35400391 C7.76028877 202.56566393 15.59322345 184.97330127 27 171 C25.41568547 167.09148801 22.73364905 164.47632644 19.7734375 161.578125 C19.26575836 161.07327576 18.75807922 160.56842651 18.23501587 160.04827881 C16.61966158 158.44407904 14.99747791 156.84699144 13.375 155.25 C12.27558302 154.16061893 11.17661941 153.0707801 10.078125 151.98046875 C7.3906398 149.31498115 4.69700979 146.65584857 2 144 C1.40541992 144.39759521 0.81083984 144.79519043 0.19824219 145.20483398 C-22.92572748 160.64824155 -47.11759025 168.26102865 -74.90917969 163.41845703 C-98.44160424 158.70867472 -118.90087853 145.78421042 -132.95703125 126.28515625 C-147.57606987 104.08587539 -153.21767002 77.89019722 -147.8215332 51.59155273 C-146.05836123 44.34690318 -143.46362826 37.60126798 -140 31 C-139.37351563 29.68515625 -139.37351563 29.68515625 -138.734375 28.34375 C-127.82546353 6.52592705 -107.0058 -8.68673221 -84.2109375 -16.328125 C-55.4723925 -24.89213947 -23.31033084 -18.4458804 0 0 Z " fill="#C1C5C9" transform="translate(149,19)"/>
<path d="M0 0 C19.47189927 15.54362366 31.60404226 37.6230749 34.59765625 62.39453125 C36.81540197 86.08309947 30.59003877 111.02303006 15.28515625 129.5234375 C14.86105469 130.01070312 14.43695313 130.49796875 14 131 C17.40022118 135.13721493 20.92792259 138.97385046 24.77734375 142.69921875 C26.04094727 143.92415039 26.04094727 143.92415039 27.33007812 145.17382812 C29.08840348 146.86893279 30.85422494 148.55629161 32.62695312 150.23632812 C33.46033203 151.04908203 34.29371094 151.86183594 35.15234375 152.69921875 C35.91538818 153.42971436 36.67843262 154.16020996 37.46459961 154.9128418 C39 157 39 157 38.84716797 159.1328125 C37.69501772 161.67219149 36.14148666 163.32951169 34.1875 165.3125 C33.50042969 166.03050781 32.81335938 166.74851563 32.10546875 167.48828125 C30 169 30 169 28.22094727 168.92871094 C24.94489375 167.55879695 22.79113325 165.15876209 20.359375 162.65234375 C19.83232971 162.12105362 19.30528442 161.58976349 18.76226807 161.04237366 C17.08432813 159.34767175 15.41713272 157.64282783 13.75 155.9375 C12.61267255 154.78512255 11.47465934 153.63342148 10.3359375 152.48242188 C7.54928008 149.66272816 4.77221208 146.83389412 2 144 C1.40541992 144.39759521 0.81083984 144.79519043 0.19824219 145.20483398 C-22.92572748 160.64824155 -47.11759025 168.26102865 -74.90917969 163.41845703 C-98.44160424 158.70867472 -118.90087853 145.78421042 -132.95703125 126.28515625 C-147.57606987 104.08587539 -153.21767002 77.89019722 -147.8215332 51.59155273 C-146.05836123 44.34690318 -143.46362826 37.60126798 -140 31 C-139.37351563 29.68515625 -139.37351563 29.68515625 -138.734375 28.34375 C-127.82546353 6.52592705 -107.0058 -8.68673221 -84.2109375 -16.328125 C-55.4723925 -24.89213947 -23.31033084 -18.4458804 0 0 Z " fill="#C1C5CA" transform="translate(149,19)"/>
<path d="M0 0 C3.27605352 1.36991399 5.42981402 3.76994884 7.86157227 6.27636719 C8.6521402 7.07330238 8.6521402 7.07330238 9.4586792 7.88633728 C11.13661914 9.58103919 12.80381455 11.2858831 14.47094727 12.99121094 C15.60827471 14.14358839 16.74628793 15.29528946 17.88500977 16.44628906 C20.67166718 19.26598278 23.44873518 22.09481682 26.22094727 24.92871094 C26.80537598 24.5369165 27.38980469 24.14512207 27.99194336 23.74145508 C39.08330878 16.32329293 49.40837336 10.62464572 62.22094727 6.92871094 C63.00985352 6.6928125 63.79875977 6.45691406 64.61157227 6.21386719 C88.4443078 -0.01721061 114.32952491 5.76607609 135.22094727 17.92871094 C138.41594848 20.06861873 141.32210775 22.40613761 144.22094727 24.92871094 C145.01887695 25.58355469 145.81680664 26.23839844 146.63891602 26.91308594 C163.59888187 41.32248329 173.96018626 60.97595815 177.22094727 82.92871094 C178.91394673 110.57013806 174.50498811 135.31412238 156.03344727 156.84667969 C141.01854514 173.57771876 119.1100824 186.75106478 96.25219727 188.10449219 C66.88181904 189.31671299 43.45112735 182.97556977 21.22094727 162.92871094 C3.45914859 145.69275498 -5.98017768 122.95627219 -6.77514648 98.32324219 C-7.04079225 76.55477921 -0.18385526 54.47890958 14.22094727 37.92871094 C10.82072609 33.79149601 7.29302468 29.95486048 3.44360352 26.22949219 C2.18 25.00456055 2.18 25.00456055 0.89086914 23.75488281 C-0.86745621 22.05977814 -2.63327768 20.37241932 -4.40600586 18.69238281 C-5.23938477 17.87962891 -6.07276367 17.066875 -6.93139648 16.22949219 C-7.69444092 15.49899658 -8.45748535 14.76850098 -9.24365234 14.01586914 C-10.77905273 11.92871094 -10.77905273 11.92871094 -10.6262207 9.79589844 C-9.47407045 7.25651945 -7.92053939 5.59919925 -5.96655273 3.61621094 C-4.93594727 2.53919922 -4.93594727 2.53919922 -3.88452148 1.44042969 C-1.77905273 -0.07128906 -1.77905273 -0.07128906 0 0 Z " fill="#C1C6CA" transform="translate(334.779052734375,324.0712890625)"/>
<path d="M0 0 C0.98467255 -0.01283524 1.96934509 -0.02567047 2.9838562 -0.03889465 C4.57763596 -0.04997505 4.57763596 -0.04997505 6.20361328 -0.0612793 C7.84416183 -0.07338692 7.84416183 -0.07338692 9.51785278 -0.08573914 C11.83284929 -0.09957353 14.14786614 -0.11029857 16.46289062 -0.11816406 C20.00315889 -0.13539696 23.54249819 -0.17929237 27.08251953 -0.22338867 C29.33121058 -0.23351394 31.57990956 -0.24203056 33.82861328 -0.2487793 C35.41632034 -0.27504143 35.41632034 -0.27504143 37.03610229 -0.30183411 C44.37994485 -0.28015357 44.37994485 -0.28015357 48.27124023 2.03320312 C50.45762739 4.52945401 51.43063086 6.65447177 52.46142578 9.80200195 C52.78755859 10.76364258 53.11369141 11.7252832 53.44970703 12.71606445 C54.14892578 15.17700195 54.14892578 15.17700195 54.14892578 17.17700195 C57.71527547 18.36578518 60.99021886 18.34988861 64.70361328 18.38793945 C66.22055115 18.4160083 67.73747809 18.44467276 69.25439453 18.47387695 C71.63964528 18.51511199 74.02469207 18.55201042 76.41015625 18.57836914 C78.71673388 18.60604998 81.02239232 18.65191682 83.32861328 18.70043945 C84.03710419 18.70369232 84.74559509 18.70694519 85.47555542 18.71029663 C89.84242696 18.81816838 92.76230738 19.35082052 96.14892578 22.17700195 C99.10676863 26.79487002 98.43620464 32.51226716 98.41455078 37.8059082 C98.41646423 38.83256088 98.41837769 39.85921356 98.42034912 40.91697693 C98.42170772 43.08300014 98.41803404 45.24903158 98.40966797 47.41503906 C98.39895305 50.73106135 98.4095801 54.04654323 98.42236328 57.36254883 C98.42104184 59.46866982 98.41847978 61.57479047 98.41455078 63.6809082 C98.41859924 64.67264542 98.42264771 65.66438263 98.42681885 66.68617249 C98.41736237 68.07297462 98.41736237 68.07297462 98.40771484 69.48779297 C98.40612366 70.29877945 98.40453247 71.10976593 98.40289307 71.94532776 C97.98141285 75.64898003 96.95938713 77.49263361 94.10522461 79.90274048 C89.97010256 81.68511331 86.30655839 81.5962401 81.84814453 81.56518555 C80.91910309 81.5704425 79.99006165 81.57569946 79.03286743 81.58111572 C75.96721498 81.59430071 72.90208336 81.58558281 69.83642578 81.57543945 C67.70320537 81.57746062 65.56998563 81.58037241 63.43676758 81.58413696 C58.96803198 81.58855829 54.49947638 81.5821353 50.03076172 81.56811523 C44.30404837 81.5510236 38.57775683 81.56086579 32.85105896 81.57883263 C28.44670435 81.58967554 24.04244967 81.58622176 19.63809204 81.57844925 C17.5265803 81.57644866 15.41505948 81.57890157 13.30355835 81.58588791 C10.35203026 81.59351058 7.40118434 81.58188641 4.44970703 81.56518555 C3.57786774 81.57125824 2.70602844 81.57733093 1.80776978 81.58358765 C-2.89142316 81.53435259 -6.05914139 81.26301514 -9.85107422 78.17700195 C-12.25974652 74.5639935 -12.11437489 72.88183881 -12.14160156 68.58178711 C-12.14831879 67.91638412 -12.15503601 67.25098114 -12.16195679 66.56541443 C-12.18095535 64.36555514 -12.18486195 62.16600068 -12.18701172 59.96606445 C-12.19343873 58.43533198 -12.20016702 56.90460074 -12.20718384 55.37387085 C-12.21916148 52.16433871 -12.22286421 48.95491424 -12.22167969 45.74536133 C-12.22147655 41.63717913 -12.24877046 37.52968912 -12.28322411 33.42167091 C-12.3054879 30.25945886 -12.30951739 27.09741347 -12.30846024 23.93513107 C-12.3108173 22.42088817 -12.3196469 20.90664075 -12.33512497 19.39247513 C-12.3547745 17.27149602 -12.3489528 15.15201023 -12.33691406 13.03100586 C-12.3397641 11.82537994 -12.34261414 10.61975403 -12.34555054 9.37759399 C-11.75200236 5.53574049 -10.5922281 3.88891583 -7.85107422 1.17700195 C-4.94426985 0.20806716 -3.02786599 0.03439917 0 0 Z " fill="#FFFFFF" transform="translate(48.85107421875,50.822998046875)"/>
<path d="M0 0 C1.09656921 0.00045822 2.19313843 0.00091644 3.32293701 0.00138855 C5.63262011 0.00440168 7.94230134 0.01225977 10.25195312 0.0246582 C13.79824972 0.04297585 17.34428592 0.04516733 20.890625 0.04492188 C23.13541894 0.0498351 25.3802111 0.05566256 27.625 0.0625 C28.68954407 0.06361282 29.75408813 0.06472565 30.85089111 0.06587219 C31.8324115 0.07225204 32.81393188 0.0786319 33.82519531 0.08520508 C34.69090149 0.08901688 35.55660767 0.09282867 36.44854736 0.09675598 C38.546875 0.23046875 38.546875 0.23046875 40.546875 1.23046875 C40.546875 1.89046875 40.546875 2.55046875 40.546875 3.23046875 C41.206875 3.23046875 41.866875 3.23046875 42.546875 3.23046875 C42.80082031 4.14570312 43.05476563 5.0609375 43.31640625 6.00390625 C43.66058594 7.19242188 44.00476563 8.3809375 44.359375 9.60546875 C44.69582031 10.78882813 45.03226562 11.9721875 45.37890625 13.19140625 C46.31095528 16.49039915 46.31095528 16.49039915 49.546875 18.23046875 C52.03690687 18.45864047 54.42511822 18.57914273 56.91796875 18.609375 C57.6367067 18.62636948 58.35544464 18.64336395 59.09596252 18.66087341 C61.39201075 18.71396132 63.68804292 18.75425977 65.984375 18.79296875 C68.2770421 18.83699835 70.56957434 18.88381933 72.86207581 18.93577576 C74.28770307 18.96754458 75.71344809 18.994492 77.13926697 19.01600647 C84.24626439 19.16334364 84.24626439 19.16334364 86.546875 20.23046875 C90.75122781 24.77365135 90.01451142 30.66310523 90.015625 36.48046875 C90.02704529 38.11677246 90.02704529 38.11677246 90.03869629 39.78613281 C90.04948663 42.08916945 90.05235475 44.39225498 90.04785156 46.6953125 C90.04687837 50.21827641 90.08853338 53.73906867 90.1328125 57.26171875 C90.13801896 59.50129755 90.1407077 61.7408839 90.140625 63.98046875 C90.15702026 65.03266602 90.17341553 66.08486328 90.19030762 67.16894531 C90.12137038 74.4625647 90.12137038 74.4625647 87.19726562 78.37109375 C82.53715909 81.64037998 78.26375399 81.38437167 72.78027344 81.39160156 C71.88399734 81.39656647 70.98772125 81.40153137 70.06428528 81.40664673 C67.0949324 81.42126822 64.12563298 81.42807089 61.15625 81.43359375 C59.09222411 81.43934589 57.02819823 81.44510362 54.96417236 81.4508667 C50.63317618 81.46137712 46.30219855 81.4672193 41.97119141 81.47070312 C36.42850015 81.4761832 30.88605512 81.50020076 25.34344101 81.52867508 C21.07799571 81.54732443 16.81260939 81.55250832 12.54712677 81.554039 C10.50424099 81.55706164 8.46135615 81.56507704 6.41851044 81.57822418 C3.55583636 81.59533 0.69375952 81.59339312 -2.16894531 81.58691406 C-3.00868393 81.59612885 -3.84842255 81.60534363 -4.71360779 81.61483765 C-10.00999878 81.57739632 -13.79493593 80.83150787 -18.453125 78.23046875 C-19.58819303 74.82526467 -19.58704811 72.21050644 -19.59838867 68.61938477 C-19.60342659 67.61887085 -19.60342659 67.61887085 -19.60856628 66.59814453 C-19.61806406 64.39353574 -19.62001875 62.18900298 -19.62109375 59.984375 C-19.62430695 58.45124785 -19.62767107 56.91812101 -19.63117981 55.38499451 C-19.637168 52.17128793 -19.63902001 48.95760824 -19.63842773 45.74389648 C-19.63832608 41.62686203 -19.65198256 37.50999992 -19.66919994 33.39300632 C-19.68032029 30.22656971 -19.68234694 27.06017477 -19.68181801 23.89372063 C-19.68299791 22.37587833 -19.68742025 20.85803494 -19.69515038 19.34021187 C-19.70495186 17.21700091 -19.70207188 15.0941643 -19.69604492 12.97094727 C-19.69746994 11.76310074 -19.69889496 10.55525421 -19.70036316 9.31080627 C-19.46170393 6.33735355 -19.1262608 4.670703 -17.453125 2.23046875 C-12.00466373 -0.56388294 -5.97088398 -0.04061148 0 0 Z " fill="#FEFEFE" transform="translate(385.453125,50.76953125)"/>
<path d="M0 0 C1.06962982 0.00187317 2.13925964 0.00374634 3.24130249 0.00567627 C5.4955356 0.01238156 7.74975738 0.02626564 10.00390625 0.046875 C13.4558391 0.07807891 16.90731494 0.08785408 20.359375 0.09375 C22.55208891 0.10291876 24.74479817 0.11329412 26.9375 0.125 C27.96984772 0.12924988 29.00219543 0.13349976 30.06582642 0.13787842 C31.02717499 0.14748596 31.98852356 0.15709351 32.97900391 0.16699219 C33.82250397 0.17382019 34.66600403 0.18064819 35.5350647 0.18768311 C37.75821093 0.32338068 39.70086258 0.71151933 41.8359375 1.328125 C41.8359375 1.988125 41.8359375 2.648125 41.8359375 3.328125 C42.4959375 3.328125 43.1559375 3.328125 43.8359375 3.328125 C44.08988281 4.24335938 44.34382813 5.15859375 44.60546875 6.1015625 C44.94964844 7.29007812 45.29382813 8.47859375 45.6484375 9.703125 C45.98488281 10.88648438 46.32132812 12.06984375 46.66796875 13.2890625 C47.60001778 16.5880554 47.60001778 16.5880554 50.8359375 18.328125 C53.38750313 18.52077244 55.83896723 18.60513287 58.390625 18.6015625 C59.90755943 18.62185393 61.42448646 18.64270476 62.94140625 18.6640625 C65.32672372 18.68664423 67.71174858 18.70312699 70.09716797 18.70898438 C72.40385507 18.71852995 74.70923264 18.75233061 77.015625 18.7890625 C77.72411591 18.78401703 78.43260681 18.77897156 79.16256714 18.77377319 C83.98540227 18.8691537 86.44645886 19.90991521 89.8359375 23.328125 C91.04861868 25.75348736 90.98867842 27.35487611 91.02880859 30.06567383 C91.04487152 31.05042191 91.06093445 32.03516998 91.07748413 33.04975891 C91.12189545 37.55538281 91.16299718 42.06085886 91.18603516 46.56665039 C91.20259999 48.94402858 91.22989662 51.32135686 91.26806641 53.69848633 C91.32279005 57.12347287 91.34470292 60.54729159 91.359375 63.97265625 C91.38204437 65.03426468 91.40471375 66.09587311 91.42807007 67.18965149 C91.40693653 74.56185928 91.40693653 74.56185928 88.49072266 78.4753418 C83.82010441 81.73498148 79.54158119 81.4820352 74.0534668 81.48925781 C72.70664322 81.49670517 72.70664322 81.49670517 71.33261108 81.50430298 C68.35845171 81.518923 65.38434568 81.52572648 62.41015625 81.53125 C60.34373472 81.53700174 58.27731322 81.54275947 56.21089172 81.54852295 C51.87569937 81.55903259 47.54052557 81.56487545 43.20532227 81.56835938 C37.65356477 81.57384289 32.10205268 81.59786814 26.55037212 81.62633133 C22.28067817 81.64496643 18.01104321 81.65016379 13.74131203 81.65169525 C11.69480867 81.65472051 9.64830632 81.66274477 7.60184288 81.67588043 C4.73656998 81.69295836 1.87189512 81.6910563 -0.9934082 81.68457031 C-1.8367421 81.6937851 -2.68007599 81.70299988 -3.54896545 81.7124939 C-8.48241943 81.67755728 -11.91032833 81.10393727 -16.1640625 78.328125 C-18.58427186 74.69781095 -18.41207084 73.02205067 -18.40698242 68.70117188 C-18.40888077 68.0325563 -18.41077911 67.36394073 -18.41273499 66.67506409 C-18.4164388 64.46554833 -18.40574405 62.25636153 -18.39453125 60.046875 C-18.39333906 58.51135293 -18.39288637 56.97583013 -18.3931427 55.44030762 C-18.39157849 52.22236566 -18.38329387 49.00453505 -18.36987305 45.78662109 C-18.35288333 41.66056063 -18.34905877 37.53462254 -18.34981823 33.40853119 C-18.34954637 30.23784211 -18.34406261 27.06717981 -18.33681679 23.89649963 C-18.33363333 22.37504784 -18.33166346 20.85359301 -18.33092308 19.33213806 C-18.3287561 17.20639878 -18.32000412 15.08078949 -18.30932617 12.95507812 C-18.30551437 11.74501099 -18.30170258 10.53494385 -18.29777527 9.28820801 C-18.1640625 6.328125 -18.1640625 6.328125 -17.1640625 3.328125 C-11.77088631 -0.47371343 -6.32613254 -0.07595795 0 0 Z " fill="#FEFEFE" transform="translate(384.1640625,379.671875)"/>
<path d="M0 0 C1.35677101 -0.00956978 1.35677101 -0.00956978 2.74095154 -0.01933289 C3.71081497 -0.02044571 4.68067841 -0.02155853 5.67993164 -0.02270508 C6.68343155 -0.02603348 7.68693146 -0.02936188 8.72084045 -0.03279114 C10.84155825 -0.03785001 12.96228399 -0.04019978 15.08300781 -0.04003906 C18.32443362 -0.04222577 21.56551915 -0.06039323 24.80688477 -0.0793457 C26.86873256 -0.0822798 28.93058197 -0.08426449 30.99243164 -0.08520508 C31.96027084 -0.09239059 32.92811005 -0.09957611 33.92527771 -0.10697937 C42.51099566 -0.07787718 42.51099566 -0.07787718 46.40258789 2.14526367 C49.235324 5.7406595 50.3324296 9.81345305 51.55883789 14.15698242 C52.33781045 16.49875779 52.33781045 16.49875779 55.40258789 18.14526367 C57.95415352 18.33791111 60.40561762 18.42227154 62.95727539 18.41870117 C64.47420982 18.4389926 65.99113685 18.45984343 67.50805664 18.48120117 C69.89337411 18.5037829 72.27839897 18.52026566 74.66381836 18.52612305 C76.97050546 18.53566862 79.27588303 18.56946928 81.58227539 18.60620117 C82.2907663 18.6011557 82.9992572 18.59611023 83.72921753 18.59091187 C88.55205266 18.68629237 91.01310926 19.72705388 94.40258789 23.14526367 C95.61526907 25.57062603 95.55532881 27.17201478 95.59545898 29.8828125 C95.61152191 30.86756058 95.62758484 31.85230865 95.64413452 32.86689758 C95.68854584 37.37252148 95.72964757 41.87799754 95.75268555 46.38378906 C95.76925038 48.76116725 95.79654701 51.13849553 95.8347168 53.515625 C95.88944044 56.94061154 95.91135331 60.36443026 95.92602539 63.78979492 C95.94869476 64.85140335 95.97136414 65.91301178 95.99472046 67.00679016 C95.97358692 74.37899796 95.97358692 74.37899796 93.05737305 78.29248047 C89.09015703 81.06121344 86.25118419 81.26742983 81.52807617 81.24951172 C80.31505829 81.24732132 79.10204041 81.24513092 77.8522644 81.24287415 C76.51747531 81.23526536 75.18268732 81.22746236 73.84790039 81.21948242 C72.4570427 81.21445258 71.06618361 81.20979555 69.67532349 81.20549011 C66.74263482 81.19547265 63.80998396 81.18219082 60.87731934 81.16668701 C57.24033582 81.14800663 53.60340471 81.138172 49.96638107 81.13186836 C42.87526308 81.11953021 35.7848414 81.08257467 28.69404221 81.01315498 C25.07856769 80.97833486 21.46355159 80.95367864 17.84790039 80.94970703 C14.25209685 80.94543131 10.65722304 80.91714282 7.06171036 80.87183189 C5.06929581 80.85276873 3.0766946 80.85817866 1.084198 80.86421204 C-0.71717117 80.83474739 -0.71717117 80.83474739 -2.55493164 80.8046875 C-3.60504425 80.79802567 -4.65515686 80.79136383 -5.73709106 80.78450012 C-9.70587808 79.89753908 -11.17633316 78.37501441 -13.59741211 75.14526367 C-14.23233032 71.95812988 -14.23233032 71.95812988 -14.24438477 68.32299805 C-14.25752716 67.32445549 -14.25752716 67.32445549 -14.27093506 66.30574036 C-14.29285279 64.11615857 -14.27840688 61.92861416 -14.26147461 59.73901367 C-14.26484502 58.21113703 -14.26969952 56.683263 -14.27597046 55.15539551 C-14.28333133 51.95758467 -14.27266281 48.76047346 -14.24926758 45.56274414 C-14.22077884 41.47003237 -14.23718724 37.37895995 -14.2671299 33.28630829 C-14.28522498 30.13258582 -14.27943503 26.97925006 -14.26649094 23.82551575 C-14.26316296 22.31687728 -14.26722266 20.80820335 -14.2788887 19.29960632 C-14.29163568 17.18797255 -14.27217463 15.07896787 -14.24438477 12.9675293 C-14.2404068 11.76793579 -14.23642883 10.56834229 -14.23233032 9.33239746 C-13.40925018 5.20073693 -11.86861474 3.72414458 -8.59741211 1.14526367 C-5.75317478 0.01689945 -3.04345363 0.01462521 0 0 Z " fill="#FFFFFF" transform="translate(50.597412109375,379.854736328125)"/>
<path d="M0 0 C4.4997193 3.85690226 7.40402432 7.36711716 8.625 13.25 C8.71859497 19.62485747 7.88161883 24.28394469 3.625 29.25 C-0.40738567 33.17340228 -4.62306506 35.25 -10.35546875 35.25 C-13.99229307 34.91234513 -16.18330483 34.36442594 -19.39916992 32.44482422 C-21.84365125 31.39696643 -23.00082816 31.15798932 -25.60879517 31.79930115 C-28.20929107 32.93111708 -30.68214209 34.19956748 -33.17578125 35.55078125 C-34.55216011 36.25632393 -34.55216011 36.25632393 -35.9563446 36.97612 C-38.87995269 38.48086265 -41.78352288 40.02026536 -44.6875 41.5625 C-47.61284753 43.08623347 -50.54181253 44.60275672 -53.47221375 46.116745 C-55.29342192 47.06092967 -57.11094231 48.01226739 -58.9243927 48.9712677 C-59.74251938 49.40138657 -60.56064606 49.83150543 -61.40356445 50.2746582 C-62.12413528 50.65676956 -62.84470612 51.03888092 -63.58711243 51.43257141 C-65.375 52.25 -65.375 52.25 -67.375 52.25 C-67.375 53.57 -67.375 54.89 -67.375 56.25 C-66.55588135 56.49476074 -65.7367627 56.73952148 -64.89282227 56.99169922 C-60.75800938 58.47069329 -56.98389015 60.36743392 -53.08984375 62.3828125 C-51.4917085 63.19695239 -49.89339584 64.01074411 -48.29492188 64.82421875 C-45.79560286 66.10181805 -43.29798691 67.38248744 -40.8034668 68.66943359 C-38.38254379 69.91616494 -35.95551777 71.15027723 -33.52734375 72.3828125 C-32.78451645 72.77026642 -32.04168915 73.15772034 -31.27635193 73.55691528 C-27.52133272 75.45272593 -24.6919029 76.83274444 -20.375 76.25 C-18.44284874 75.59077164 -18.44284874 75.59077164 -16.625 74.6875 C-12.01206563 72.85973355 -8.14105788 72.95016603 -3.375 74.25 C1.96621419 77.07177353 5.2926901 80.52193687 7.9375 85.9375 C9.17749821 91.91203685 8.69098147 97.19417859 5.875 102.625 C2.01593664 107.12724059 -1.49389951 110.00592105 -7.375 111.25 C-14.90203676 111.37384521 -20.06089649 109.20582205 -25.6875 104.1875 C-28.2032099 99.80830129 -28.71471683 95.21081172 -29.375 90.25 C-30.18582031 90.01192627 -30.99664062 89.77385254 -31.83203125 89.52856445 C-36.13490954 87.97576859 -40.0282655 85.93390713 -44.0625 83.79296875 C-45.74677514 82.91872504 -47.43169083 82.04571446 -49.1171875 81.17382812 C-51.7567305 79.80454672 -54.39167842 78.42862282 -57.01660156 77.03149414 C-59.56268781 75.67980651 -62.12293912 74.35918802 -64.6875 73.04296875 C-65.85962036 72.40575142 -65.85962036 72.40575142 -67.05541992 71.75566101 C-69.17741345 70.68412292 -71.05966558 69.79074545 -73.375 69.25 C-76.77206032 70.31224484 -76.77206032 70.31224484 -79.375 72.25 C-85.61484832 73.94397944 -90.69629724 73.25710299 -96.375 70.25 C-101.91271897 66.68124778 -103.81813884 62.71609944 -105.25 56.375 C-105.78960719 50.6155192 -103.62370145 46.18764018 -100.5625 41.4375 C-96.26482313 37.13982313 -91.6128306 35.69288019 -85.69140625 35.171875 C-81.146381 35.32516422 -77.40216048 37.23641976 -73.375 39.25 C-71.45100787 38.57488586 -71.45100787 38.57488586 -69.32421875 37.43579102 C-68.07282104 36.80502403 -68.07282104 36.80502403 -66.79614258 36.16151428 C-65.89404053 35.69700363 -64.99193848 35.23249298 -64.0625 34.75390625 C-62.67550903 34.05260841 -62.67550903 34.05260841 -61.26049805 33.33714294 C-58.2947971 31.83641531 -55.33463359 30.32515368 -52.375 28.8125 C-49.41470867 27.3047844 -46.45330592 25.79936805 -43.48950195 24.29856873 C-41.64207174 23.36254962 -39.79679638 22.42226354 -37.95385742 21.47743225 C-37.11959229 21.05376877 -36.28532715 20.63010529 -35.42578125 20.19360352 C-34.69012939 19.81752457 -33.95447754 19.44144562 -33.1965332 19.05397034 C-31.375 18.25 -31.375 18.25 -29.375 18.25 C-29.24544922 17.16332031 -29.24544922 17.16332031 -29.11328125 16.0546875 C-28.17006433 9.56466284 -27.21674746 5.75395112 -22.375 1.25 C-15.40048826 -3.68319123 -7.58585192 -3.9334047 0 0 Z " fill="#FFFFFF" transform="translate(295.375,201.75)"/>
<path d="M0 0 C2 1 2 1 3.1875 3.125 C5.27346502 6.4337721 7.75067956 8.68301677 10.671875 11.25390625 C12 13 12 13 11.9128418 14.7565918 C10.57671936 18.04025831 8.20958831 20.1982936 5.72265625 22.640625 C4.93283607 23.43119293 4.93283607 23.43119293 4.12705994 24.23773193 C3.01513644 25.34731917 1.89952865 26.45322498 0.78051758 27.55566406 C-0.93655493 29.24906795 -2.63984381 30.95547749 -4.34179688 32.6640625 C-5.42368795 33.74037924 -6.50634437 34.81592732 -7.58984375 35.890625 C-8.10135483 36.40304749 -8.61286591 36.91546997 -9.13987732 37.44342041 C-12.76895966 41 -12.76895966 41 -15 41 C-16.85999285 39.0324413 -18.53390198 36.94444402 -20.24609375 34.84765625 C-21.96005081 32.75201831 -21.96005081 32.75201831 -25 32 C-24.56299069 27.63376859 -21.66901375 25.35398823 -18.65234375 22.5 C-17.56175411 21.43759736 -16.47126227 20.37509431 -15.38085938 19.3125 C-13.65656532 17.65048237 -11.92906202 15.99192343 -10.19897461 14.3359375 C-8.52917899 12.73240173 -6.87167004 11.11691622 -5.21484375 9.5 C-4.6930101 9.00822266 -4.17117645 8.51644531 -3.63352966 8.00976562 C-2.00066855 6.45603259 -2.00066855 6.45603259 0 4 C0 2.68 0 1.36 0 0 Z " fill="#F5F5F6" transform="translate(176,320)"/>
<path d="M0 0 C3.27605352 1.36991399 5.42981402 3.76994884 7.86157227 6.27636719 C8.6521402 7.07330238 8.6521402 7.07330238 9.4586792 7.88633728 C11.13661914 9.58103919 12.80381455 11.2858831 14.47094727 12.99121094 C15.60827471 14.14358839 16.74628793 15.29528946 17.88500977 16.44628906 C20.67166718 19.26598278 23.44873518 22.09481682 26.22094727 24.92871094 C25.12872701 28.20537171 24.39375872 28.84480324 21.78344727 30.92871094 C19.33320095 32.89300026 18.00714148 34.24941961 16.22094727 36.92871094 C12.36115732 35.34162439 9.68507516 32.73167215 6.76391602 29.84277344 C6.00308464 29.09548477 6.00308464 29.09548477 5.22688293 28.33309937 C4.16108557 27.28176481 3.0980392 26.22763496 2.03759766 25.17089844 C0.40847789 23.55374133 -1.23836993 21.95617369 -2.88647461 20.35839844 C-3.92082101 19.33350931 -4.95406378 18.30750491 -5.98608398 17.28027344 C-6.48179398 16.80409576 -6.97750397 16.32791809 -7.48823547 15.83731079 C-8.84472656 14.46240234 -8.84472656 14.46240234 -10.77905273 11.92871094 C-10.61810304 8.15435666 -8.55254238 6.24058262 -5.96655273 3.61621094 C-4.93594727 2.53919922 -4.93594727 2.53919922 -3.88452148 1.44042969 C-1.77905273 -0.07128906 -1.77905273 -0.07128906 0 0 Z " fill="#F2F1F2" transform="translate(334.779052734375,324.0712890625)"/>
<path d="M0 0 C3.27666077 1.09222026 3.91609231 1.82718854 6 4.4375 C7.96428932 6.88774632 9.32070868 8.21380578 12 10 C10.41291345 13.85978995 7.80296121 16.53587211 4.9140625 19.45703125 C4.16677383 20.21786263 4.16677383 20.21786263 3.40438843 20.99406433 C2.35305388 22.0598617 1.29892403 23.12290806 0.2421875 24.18334961 C-1.37496961 25.81246938 -2.97253725 27.45931719 -4.5703125 29.10742188 C-5.59520162 30.14176828 -6.62120603 31.17501104 -7.6484375 32.20703125 C-8.12461517 32.70274124 -8.60079285 33.19845123 -9.09140015 33.70918274 C-10.46630859 35.06567383 -10.46630859 35.06567383 -13 37 C-16.77435428 36.8390503 -18.68812832 34.77348964 -21.3125 32.1875 C-22.03050781 31.50042969 -22.74851562 30.81335938 -23.48828125 30.10546875 C-25 28 -25 28 -24.92871094 26.22094727 C-23.55879695 22.94489375 -21.15876209 20.79113325 -18.65234375 18.359375 C-17.85540855 17.56880707 -17.85540855 17.56880707 -17.04237366 16.76226807 C-15.34767175 15.08432813 -13.64282783 13.41713272 -11.9375 11.75 C-10.78512255 10.61267255 -9.63342148 9.47465934 -8.48242188 8.3359375 C-5.66272816 5.54928008 -2.83389412 2.77221208 0 0 Z " fill="#F5F5F6" transform="translate(349,151)"/>
<path d="M0 0 C4.19220042 0.14859449 6.66398381 3.19639233 9.45703125 5.98828125 C9.96425217 6.48788864 10.47147308 6.98749603 10.99406433 7.50224304 C12.06101306 8.55840755 13.12403452 9.61855229 14.18334961 10.68237305 C15.81050453 12.31050333 17.45783269 13.91612669 19.10742188 15.52148438 C20.14192285 16.55078056 21.17517075 17.58133802 22.20703125 18.61328125 C22.70274124 19.09259598 23.19845123 19.57191071 23.70918274 20.06575012 C25.06567383 21.45043945 25.06567383 21.45043945 27 24 C26.83919618 27.77470215 24.773908 29.68770375 22.1875 32.3125 C21.50042969 33.03050781 20.81335938 33.74851563 20.10546875 34.48828125 C18 36 18 36 16.22094727 35.92431641 C12.95947972 34.56695506 10.79460628 32.20235854 8.359375 29.72265625 C7.56880707 28.93283607 7.56880707 28.93283607 6.76226807 28.12705994 C5.65268083 27.01513644 4.54677502 25.89952865 3.44433594 24.78051758 C1.75093205 23.06344507 0.04452251 21.36015619 -1.6640625 19.65820312 C-2.74037924 18.57631205 -3.81592732 17.49365563 -4.890625 16.41015625 C-5.40304749 15.89864517 -5.91546997 15.38713409 -6.44342041 14.86012268 C-10 11.23104034 -10 11.23104034 -10 9 C-8.3203125 7.34375 -8.3203125 7.34375 -6.125 5.5 C-4.00964496 3.71066742 -1.95980876 1.95980876 0 0 Z " fill="#F2F1F2" transform="translate(161,152)"/>
<path d="M0 0 C0.66 0.33 1.32 0.66 2 1 C-4.27 7.27 -10.54 13.54 -17 20 C-17 15.59206469 -14.19898652 13.59111129 -11.3125 10.5625 C-10.51682617 9.70301758 -10.51682617 9.70301758 -9.70507812 8.82617188 C-6.66424545 5.58386072 -3.55839592 2.68695202 0 0 Z " fill="#DAE1ED" transform="translate(364,18)"/>
<path d="M0 0 C0.66 0.33 1.32 0.66 2 1 C-3.94 6.94 -9.88 12.88 -16 19 C-16 14.76641181 -13.57639709 12.97541337 -10.8125 10.0625 C-10.08836914 9.27456055 -10.08836914 9.27456055 -9.34960938 8.47070312 C-6.43336087 5.34307553 -3.41697361 2.59240228 0 0 Z " fill="#DAE0EC" transform="translate(35,347)"/>
<path d="M0 0 C0.66 0.33 1.32 0.66 2 1 C-3.94 6.94 -9.88 12.88 -16 19 C-16 14.76641181 -13.57639709 12.97541337 -10.8125 10.0625 C-10.08836914 9.27456055 -10.08836914 9.27456055 -9.34960938 8.47070312 C-6.43336087 5.34307553 -3.41697361 2.59240228 0 0 Z " fill="#D9E0EC" transform="translate(35,18)"/>
</svg>
